<svg height="52" viewBox="0 0 330 52" width="330" xmlns="http://www.w3.org/2000/svg"><g fill="#fff" fill-rule="evenodd" transform=""><path d="m21.5913902 10.5099695c-6.4982853 0-11.5024261.7855937-15.01060236 2.3543545-3.53486825 1.5821068-5.30563887 3.7229254-5.31352514 6.4267023-.00121327.3251569.0218389.5781242.07158306.7576884l14.51012764.0224456.0006066-.2153558c.0024266-.8656697.5599251-1.4947513 1.671889-1.8896713 1.1101439-.3961334 2.4313972-.5914702 3.96194-.5896503 1.6779553.0030332 3.0453129.2936119 4.1057127.8723427 1.05858.5775175 1.5875666 1.4262013 1.5839268 2.5430183l-.0042465 1.4073956c-6.2186261-.0109194-11.2530987.2523606-15.1052376.7862003-3.85153223.5344464-6.80463651 1.5305428-8.85506635 2.9870759-2.05406965 1.4577465-3.08535093 3.573693-3.0932372 6.3496595-.01637917 5.3353641 4.56493626 8.0100224 13.74394625 8.0257949 3.1102231.0042465 5.8243127-.316664 8.1477288-.9609115 2.3203829-.6460673 4.4211635-1.5074905 6.300522-2.5860894.686712 1.1192435 1.9557946 1.9952259 3.803608 2.6291606 1.8490267.633328 4.2045944.9536319 7.0667033.9572717 1.4807986.0018199 2.7880993-.0770428 3.9255419-.2378013 1.1344094-.160152 2.0109985-.3203039 2.628554-.4822757.6175555-.1607586.9997362-.276626 1.1495753-.3494224l.0188057-6.2186261-2.6649522-.0048531c-.7910534-.0012132-1.3819169-.1995832-1.775017-.5981431-.3943135-.39674-.5890436-.9008545-.5872237-1.5141636l.0357915-11.1396577c.0090995-3.2794745-1.8593395-5.653848-5.6041038-7.1200873-3.7471909-1.4650261-8.6069522-2.2033021-14.5786775-2.2124017-.0448911 0-.0891755 0-.1346732 0zm-6.7391199 20.4302888c.0036399-1.1186368 1.0058026-2.0091786 3.0058817-2.6728384 2.0006856-.6630532 5.0987759-.9924566 9.2948775-.9857836l-.0078863 2.4338238c-.0036398 1.1174236-.7352429 2.0540697-2.1929893 2.8075117-1.4541066.7522287-3.1381283 1.1277364-5.0538849 1.1277364-.006673 0-.013346 0-.0206256 0-3.3571239-.0048531-5.0314394-.9087408-5.0253731-2.7104499z"/><path d="m49.8430376.55143217-.1243604 39.20506783 14.7333697.0230522.1225404-39.20506786-14.389407-.02305217z"/><path d="m73.3265256 11.2446058-6.0700003-.0090996-.0236588 7.3002582 5.4791368.0090996-.0448911 14.2759661c-.0090995 2.7753599 1.1562483 4.7426806 3.4972568 5.8995355 2.3404019 1.1574616 5.6835731 1.7380123 10.0264806 1.7465052 1.3807037.0012133 3.0101281-.0861423 4.8864534-.2626734 1.8757186-.1789576 3.4074746-.4094793 4.5928415-.6970248l.0194123-6.3266074-4.1457507-.0060663c-1.5802869-.0024266-2.6637389-.3014981-3.2539958-.8972147-.5908635-.59511-.8838687-1.5426755-.8802289-2.84027l.0339716-10.8690981 8.2915015.0121328.0230522-7.2996516-8.2908948-.013346.0266919-8.65244994-10.9570602-.01637917z"/><path d="m120.482772 10.6713347c-6.819802 0-12.177005 1.2527034-16.066149 3.7593236-3.906736 2.516933-5.8685971 6.2289389-5.8831564 11.1305582-.0169858 5.0114204 1.9709604 8.7543648 5.9608054 11.2306531 3.989846 2.4750751 9.612149 3.718679 16.866909 3.7295985 6.908978.011526 12.168513-.9530253 15.777997-2.8942606 3.608271-1.9412354 5.419686-4.6425857 5.429393-8.1034443l-14.287493-.0218389c-.004246 1.2624096-.587223 2.2694254-1.749538 3.0240807-1.161708.7558685-2.97737 1.1319828-5.443952 1.1277364-2.714696-.0036399-4.700216-.5295933-5.955952-1.5778604-1.254524-1.0470538-1.878752-2.5982222-1.872079-4.6535051l29.315687.0461043.006066-1.8381072c.016379-5.0472119-1.860553-8.7986492-5.628369-11.2561319-3.767817-2.4580892-9.230574-3.6919869-16.38524-3.7029064-.028512 0-.056417 0-.084929 0zm-7.133433 11.6686444c.552039-3.2072848 3.149654-4.8081973 7.787993-4.8003111 2.073482.0030332 3.687134.4379913 4.845203 1.3048742 1.156248.8662763 1.732552 2.040117 1.728329 3.5172758z"/><path d="m170.25726 10.6980267c-2.404706 0-4.56433.421612-6.4813 1.2605897-1.928496.8438307-3.340138 2.0947143-4.232499 3.752044l-.949386-4.3289549-12.065991-.0188057-.089782 28.5519322 14.73155.0230522.040038-12.7078119c.007279-2.2694255.690352-3.9813524 2.05225-5.1333543 1.360684-1.1520018 3.570053-1.7246663 6.630532-1.7204198l4.737827.0078863.027905-9.0309909c.000607-.0357915-.442237-.1534789-1.330959-.3536688-.887509-.1977633-1.898164-.2996782-3.03318-.3014981-.01274 0-.024872 0-.037005 0z"/><path d="m217.091383 10.8339132c-6.82041 0-12.177006 1.2539167-16.066756 3.7605368-3.906736 2.5175396-5.867991 6.2283323-5.88255 11.1311649-.016986 5.0108137 1.971567 8.7537581 5.961413 11.2288332 3.989845 2.476895 9.610934 3.7198922 16.866908 3.7314183 6.907158.0109195 12.167299-.9548451 15.77739-2.8960805 3.607665-1.9412353 5.418474-4.641979 5.429393-8.102231l-14.288099-.0230522c-.00364 1.2630163-.586617 2.2712454-1.748931 3.0259006-1.162922.7552619-2.977977 1.130163-5.444559 1.1271298-2.715303-.0042465-4.699609-.5289866-5.955346-1.5778604-1.255737-1.0464471-1.878145-2.5982222-1.872686-4.6522918l29.315687.0461043.006067-1.8393205c.015772-5.0466052-1.858733-8.7986492-5.627156-11.2561318-3.767817-2.4580893-9.231788-3.6925936-16.385846-3.7041197-.028512 0-.055811 0-.084929 0zm-7.133434 11.669251c.551432-3.2066782 3.147835-4.8075907 7.787994-4.8003111 2.073482.0030332 3.686527.4392045 4.843989 1.3060874 1.157461.8662763 1.734372 2.0395104 1.730149 3.5172758z"/><path d="m274.265617 8.195653c-.720077.9172337-2.290051 1.9339557-4.710529 3.0471329-1.628818-.218389-3.775096-.33001-6.440048-.3342565-6.070001-.0090995-10.947961.6945983-14.628422 2.1123067-3.680461 1.4189217-5.527061 3.7860156-5.537374 7.1024949-.00364 1.2982011.558712 2.5339187 1.690695 3.7077595 1.131376 1.1726275 2.659492 2.211795 4.580709 3.1162894-2.123227.3937068-3.90249 1.1556416-5.337184 2.2894444-1.435908 1.1338028-2.154772 2.4028854-2.158411 3.8090677-.004854 1.0094424.338502 1.9479084 1.027034 2.813578.687926.8662763 1.622752 1.6069789 2.806299 2.2208946-1.779264.5744843-3.260669 1.4280213-4.450282 2.5624307-1.187187 1.1331961-1.784117 2.4040986-1.789577 3.810281-.002426 1.2963812.436778 2.4781082 1.323074 3.5433611.884475 1.0640397 2.077728 1.9048372 3.582185 2.5205728 1.503245.6145223 3.141768.9239067 4.919819.9263333l21.763675.0339716c2.961597.0048531 5.702985-.3688347 8.222951-1.1228834 2.518753-.7528353 4.520045-1.8672257 6.00509-3.3425646 1.485652-1.4771587 2.232421-3.2406497 2.238487-5.295326.0091-2.7765732-1.094371-4.9944346-3.309199-6.657224-2.216648-1.6621828-5.496729-2.4957007-9.83903-2.5029803l-13.325974-.0206257c-1.727093-.0030332-2.936119-.1577253-3.625864-.4652898-.691565-.3075645-1.033708-.7140106-1.031888-1.2193385.002427-1.0446272 1.559055-1.565121 4.668065-1.5602679l5.626549.0090996c4.688083.0072796 8.600886-.7619349 11.739621-2.3070369 3.140554-1.545102 4.714168-3.8315133 4.724481-6.8598405.00364-1.1896132-.40038-2.3179563-1.210845-3.3819959-.812286-1.0640397-1.93153-1.9946193-3.358944-2.7905258 3.011341-.5714512 5.271667-1.4510735 6.781584-2.6394735 1.508097-1.1871867 2.266392-2.87909466 2.273065-5.07936361l-12.14-.01880572c-.00182.39795325-.363375 1.05433345-1.079812 1.97278043zm-15.444347 14.5762509c-.960912-.5969298-1.439548-1.4898981-1.435301-2.680118.003033-1.1526085.523527-2.0346573 1.562088-2.6467531 1.039167-.6114891 2.371946-.9160204 4.001371-.9129872 1.775624.0030331 3.169067.3014981 4.179722.8990346 1.008836.5963232 1.512951 1.4892915 1.509917 2.680118-.004853 1.1890067-.515034 2.0795484-1.526296 2.6740517-1.009442.588437-2.394999.885082-4.157883.885082-.0091 0-.018806 0-.029119 0-1.775624-.0024265-3.144801-.3027114-4.104499-.898428zm-1.663396 22.6821219c-1.087092-.00182-1.998866-.2560005-2.736536-.7625416-.739489-.5053278-1.105897-1.1726274-1.104684-2.0012923.002427-.8304847.362162-1.4686658 1.079812-1.9193964.715831-.4489107 1.640951-.673366 2.778393-.6709395l11.549137.0188057c1.135016.0018199 2.071663.2371947 2.809939.7073377.740702.468323 1.106504 1.1186368 1.104077 1.9491216-.003033.8274515-.38764 1.485045-1.153215 1.9715671-.763755.4828823-1.685235.7249301-2.763227.7249301-.004853 0-.009706 0-.014559 0z"/><path d="m307.410997 10.9837523c-6.813129 0-12.164266 1.2539167-16.05159 3.7581103-3.907949 2.5181462-5.86799 6.2289389-5.884976 11.1311648-.014559 4.9034392 1.923036 8.6196916 5.814606 11.1487573 3.890357 2.5290657 9.265153 3.7993616 16.126813 3.8108876 6.858627.0109195 12.255868-1.2520968 16.18687-3.7878354 3.932215-2.5345254 5.904388-6.235612 5.920161-11.102653.016379-4.867041-1.933349-8.5735872-5.849791-11.1220653-3.915836-2.5466581-9.305191-3.8266601-16.164425-3.8363663-.032758 0-.06491 0-.097668 0zm-7.208049 16.4798748.010312-3.0817111c.012133-4.0741677 2.435644-6.1070051 7.27296-6.0991188 4.88706.0072796 7.322704 2.0486099 7.310571 6.1215643l-.010313 3.0835311c-.013346 4.0298832-2.451416 6.0445216-7.320884 6.0445216-.009706 0-.019412 0-.027905 0-4.837316-.0078863-7.248087-2.0304109-7.234741-6.0687871z"/></g></svg>