<svg fill="none" height="24" viewBox="0 0 24 24" width="24" xmlns="http://www.w3.org/2000/svg"><path clip-rule="evenodd" d="m7.4021 8.3999c0-4.67969 3.7012-8.3999 8.3572-8.3999 4.6562 0 8.3574 3.83984 8.2378 8.27979 0 4.68021-3.701 8.40041-8.3572 8.40041-1.552 0-3.4622-.7202-4.7754-1.44l-8.71557 8.7598-2.14893-2.1602 8.71533-8.7597c-.71631-1.2002-1.31323-3.12014-1.31323-4.6802zm2.5979.1001c0 3.0938 2.5208 5.5 5.5 5.5s5.5-2.521 5.5-5.5c0-3.09375-2.5208-5.5-5.5-5.5-3.0938 0-5.5 2.521-5.5 5.5z" fill="#fff" fill-rule="evenodd" transform="matrix(-1 0 0 1 24.0002 0)"/></svg>