<svg fill="none" height="25" viewBox="0 0 25 25" width="25" xmlns="http://www.w3.org/2000/svg"><path clip-rule="evenodd" d="m7.38086 15.1558-.03565.144c0 .168.14283.3003.29761.3003h13.78568v2.3999h-14.28568c-1.30957 0-2.38086-1.0801-2.38086-2.3999 0-.4199.10718-.8159.29761-1.1519l1.60718-2.9404-4.28589-9.1079h-2.38086v-2.3999h3.89282l1.11914 2.3999 1.13086 2.3999 2.66675 5.6763.15479.3237h8.35714l3.2857-6 1.3095-2.3999h.0118l2.0715 1.15186-4.5952 8.41214c-.4048.7441-1.1904 1.2363-2.0833 1.2363h-8.86911zm-.23779 4.0444c-1.30957 0-2.36914 1.0801-2.36914 2.3999 0 1.3203 1.05957 2.3999 2.36914 2.3999 1.30932 0 2.38086-1.0796 2.38086-2.3999 0-1.3198-1.07154-2.3999-2.38086-2.3999zm11.90453 0c-1.3096 0-2.3691 1.0801-2.3691 2.3999 0 1.3203 1.0595 2.3999 2.3691 2.3999 1.3093 0 2.3809-1.0796 2.3809-2.3999 0-1.3198-1.0716-2.3999-2.3809-2.3999z" fill="#fff" fill-rule="evenodd" transform="translate(.200195 .399902)"/></svg>